<svg width="30" height="30" viewBox="0 0 30 30" fill="none" xmlns="http://www.w3.org/2000/svg">
<g clip-path="url(#clip0_38_3876)">
<path d="M18.0305 27.3246C17.7831 27.3863 17.5309 27.441 17.2805 27.4871C16.6261 27.6088 16.1934 28.2382 16.3145 28.8932C16.3743 29.2155 16.5573 29.4839 16.8058 29.6591C17.0618 29.8393 17.3878 29.9207 17.7199 29.8589C18.018 29.8036 18.3185 29.7385 18.6133 29.665C19.2595 29.5041 19.6533 28.8494 19.492 28.2035C19.3312 27.557 18.6771 27.1636 18.0305 27.3246Z" fill="white"/>
<path d="M26.9489 11.1595C27.0334 11.4141 27.1946 11.6219 27.3984 11.7656C27.7004 11.9783 28.0957 12.0499 28.4729 11.9252C29.1052 11.7152 29.4479 11.0333 29.2387 10.4012C29.1434 10.1131 29.0376 9.82407 28.9249 9.54264C28.6776 8.9242 27.9761 8.6231 27.3573 8.87048C26.7392 9.11772 26.4379 9.81942 26.6855 10.4381C26.7802 10.6746 26.8689 10.9174 26.9489 11.1595Z" fill="white"/>
<path d="M21.9492 25.6027C21.7365 25.7432 21.5169 25.8791 21.2957 26.0065C20.7186 26.3394 20.521 27.0771 20.8537 27.6539C20.9441 27.8108 21.0644 27.9391 21.203 28.0371C21.575 28.2989 22.0803 28.3381 22.5009 28.0957C22.7639 27.944 23.0254 27.7827 23.2788 27.6152C23.8343 27.2482 23.9872 26.4999 23.62 25.9441C23.2529 25.3882 22.5049 25.2355 21.9492 25.6027Z" fill="white"/>
<path d="M29.9885 14.5279C29.9622 13.8622 29.4016 13.3441 28.7357 13.3701C28.0707 13.3964 27.5522 13.9572 27.5783 14.6226C27.5883 14.877 27.5909 15.1352 27.585 15.3894C27.5757 15.8068 27.7799 16.1789 28.0971 16.4026C28.2862 16.5357 28.5155 16.6162 28.7643 16.6219C29.4299 16.6367 29.9816 16.1087 29.9963 15.4427C30.003 15.1391 30.0005 14.8314 29.9885 14.5279Z" fill="white"/>
<path d="M26.752 22.4301C26.2183 22.0296 25.4631 22.1383 25.0633 22.6711C24.9103 22.8752 24.749 23.0767 24.5839 23.2708C24.1525 23.7776 24.2135 24.539 24.7203 24.9707C24.7492 24.9952 24.7784 25.0177 24.8087 25.0389C25.3127 25.3942 26.013 25.3125 26.4204 24.8344C26.6176 24.6029 26.8098 24.3622 26.9927 24.1185C27.3925 23.5857 27.2843 22.83 26.752 22.4301Z" fill="white"/>
<path d="M28.5248 18.0705C27.8892 17.8712 27.2124 18.225 27.0133 18.8605C26.9371 19.1033 26.8526 19.3473 26.7614 19.5862C26.5612 20.1122 26.753 20.6909 27.1928 21.001C27.2735 21.0577 27.3624 21.1058 27.4589 21.1423C28.0812 21.3797 28.778 21.0675 29.0151 20.445C29.1234 20.161 29.2239 19.8707 29.3148 19.582C29.5137 18.9464 29.1602 18.2698 28.5248 18.0705Z" fill="white"/>
<path d="M12.7686 27.498C11.6904 27.3044 10.656 26.9747 9.67523 26.5149C9.66363 26.5088 9.65324 26.5019 9.64105 26.4964C9.40993 26.3876 9.17919 26.2711 8.95554 26.1493C8.95477 26.1484 8.95335 26.1478 8.95212 26.1473C8.54178 25.9214 8.14131 25.6713 7.75225 25.3975C2.07908 21.4011 0.715023 13.5343 4.71163 7.86119C5.58067 6.62804 6.63235 5.59926 7.80481 4.78387C7.81926 4.77381 7.8337 4.76381 7.84802 4.75369C11.9796 1.90691 17.5896 1.71506 21.9767 4.64038L21.0345 6.0018C20.7725 6.38073 20.9337 6.65687 21.3923 6.6156L25.4851 6.24917C25.9443 6.2079 26.2189 5.81072 26.0954 5.3673L24.9963 1.40732C24.8733 0.963383 24.5583 0.910245 24.296 1.28911L23.3516 2.65375C20.1321 0.492554 16.2706 -0.331544 12.4379 0.333074C12.0518 0.399884 11.6712 0.481655 11.2958 0.57684C11.2929 0.577356 11.2906 0.577678 11.2883 0.578194C11.2738 0.581741 11.2591 0.586449 11.2449 0.590382C7.93991 1.43911 5.05632 3.36674 2.99869 6.11704C2.98134 6.13761 2.96347 6.15773 2.9471 6.18011C2.87867 6.27226 2.81077 6.36654 2.74428 6.46082C2.63555 6.61534 2.52837 6.77372 2.42584 6.93211C2.413 6.95119 2.4032 6.97061 2.39198 6.98989C0.694 9.62108 -0.125003 12.663 0.0154528 15.7599C0.0157752 15.77 0.0151948 15.7803 0.0154528 15.7907C0.0290598 16.0933 0.0530495 16.4 0.0856161 16.7019C0.0873573 16.7214 0.091678 16.7398 0.0949669 16.7593C0.12863 17.0629 0.17087 17.3672 0.223815 17.6715C0.761906 20.7758 2.22631 23.5693 4.42065 25.7429C4.42575 25.7479 4.43104 25.7535 4.4362 25.7588C4.438 25.7608 4.44 25.7618 4.44174 25.7637C5.03129 26.3452 5.67257 26.883 6.36304 27.3693C8.17001 28.6426 10.1821 29.4842 12.343 29.872C12.9986 29.9898 13.625 29.5533 13.7426 28.898C13.8601 28.2422 13.4241 27.6154 12.7686 27.498Z" fill="white"/>
<path d="M14.2599 5.3653C13.7205 5.3653 13.2837 5.80253 13.2837 6.34107V16.0625L22.1747 20.6587C22.3178 20.7327 22.471 20.7676 22.6218 20.7676C22.9749 20.7676 23.316 20.5753 23.4894 20.2398C23.7367 19.7609 23.5496 19.1726 23.0707 18.9253L15.2349 14.8742V6.34107C15.2349 5.80253 14.7985 5.3653 14.2599 5.3653Z" fill="white"/>
</g>
<defs>
<clipPath id="clip0_38_3876">
<rect width="30" height="30" fill="white"/>
</clipPath>
</defs>
</svg>
