<svg width="10" height="7" viewBox="0 0 10 7" fill="none" xmlns="http://www.w3.org/2000/svg">
<path d="M5.34245 6.15375L9.09245 0.737082C9.1357 0.674571 9.16103 0.601419 9.16569 0.525546C9.17035 0.449673 9.15417 0.373971 9.11889 0.306635C9.08362 0.239301 9.03059 0.1829 8.96556 0.143539C8.90053 0.104178 8.82597 0.0833575 8.74995 0.0833322L1.24995 0.0833325C1.1739 0.083282 1.09928 0.104047 1.03419 0.143377C0.969101 0.182708 0.916015 0.239103 0.880688 0.306452C0.845362 0.3738 0.829141 0.449533 0.833785 0.525442C0.838429 0.601352 0.863761 0.674542 0.907034 0.737082L4.65703 6.15375C4.69555 6.20893 4.74682 6.254 4.80648 6.28512C4.86615 6.31624 4.93245 6.33249 4.99974 6.33249C5.06704 6.33249 5.13334 6.31624 5.193 6.28512C5.25267 6.254 5.30394 6.20893 5.34245 6.15375Z" fill="#3D318A"/>
</svg>
