<svg width="12" height="12" viewBox="0 0 12 12" fill="none" xmlns="http://www.w3.org/2000/svg">
<path d="M1.48355 2.9671C2.30289 2.9671 2.9671 2.30289 2.9671 1.48355C2.9671 0.664208 2.30289 0 1.48355 0C0.664208 0 0 0.664208 0 1.48355C0 2.30289 0.664208 2.9671 1.48355 2.9671Z" fill="#3D318A"/>
<path d="M2.71984 3.95801H0.247258C0.110772 3.95801 0 4.06878 0 4.20527V11.623C0 11.7595 0.110772 11.8703 0.247258 11.8703H2.71984C2.85633 11.8703 2.9671 11.7595 2.9671 11.623V4.20527C2.9671 4.06878 2.85633 3.95801 2.71984 3.95801Z" fill="#3D318A"/>
<path d="M10.088 3.54689C9.03126 3.1849 7.70942 3.50288 6.91671 4.07306C6.88951 3.96673 6.79258 3.88761 6.67736 3.88761H4.20478C4.06829 3.88761 3.95752 3.99838 3.95752 4.13487V11.5526C3.95752 11.6891 4.06829 11.7999 4.20478 11.7999H6.67736C6.81385 11.7999 6.92462 11.6891 6.92462 11.5526V6.22173C7.32419 5.87755 7.83898 5.76776 8.26031 5.94678C8.66878 6.11936 8.90269 6.54069 8.90269 7.10197V11.5526C8.90269 11.6891 9.01346 11.7999 9.14994 11.7999H11.6225C11.759 11.7999 11.8698 11.6891 11.8698 11.5526V6.60399C11.8416 4.57202 10.8857 3.81986 10.088 3.54689Z" fill="#3D318A"/>
</svg>
