<svg width="355" height="45" viewBox="0 0 355 45" fill="none" xmlns="http://www.w3.org/2000/svg">
<path d="M87.8429 7.55786L90.6458 14.0119H63.5756L60.7358 7.55786C74.5045 7.55786 83.5402 7.55786 87.8429 7.55786ZM71.0254 26.92H90.6458C90.6458 26.92 89.8467 29.0714 88.2485 33.3741H63.5756C63.5756 30.3991 63.5756 27.0921 63.5756 23.4533V17.6631H71.0254V26.92Z" fill="#3B3561"/>
<path d="M115.7 20.0603V28.5428L113.598 33.3741H93.9774L91.8752 28.5428V20.0603L93.9774 15.229H113.598L115.7 20.0603ZM108.582 27.547V21.0561H98.9931V27.547H108.582Z" fill="#3B3561"/>
<path d="M148.421 15.229L150.523 20.0234V33.3741H143.405V21.0561H137.836V33.3741H130.718V21.0561H125.149V33.3741H118.031V15.1921L148.421 15.229Z" fill="#3B3561"/>
<path d="M174.761 15.229L176.9 20.0603L176.864 33.3741H162.591V27.547H169.783V21.0561H160.157V40.6764H153.039V15.229H174.761Z" fill="#3B3561"/>
<path d="M197.326 15.229V21.0561L190.393 21.0929L186.52 22.7157V33.3741H179.403V15.229H186.52V16.8517L190.393 15.229H197.326Z" fill="#3B3561"/>
<path d="M205.708 20.2816V28.3215H220.313V33.3741H200.693L198.59 28.5428V20.0603L200.693 15.229H220.313L222.415 20.0603V26.1824H208.142V22.5313H215.297V20.2816H205.708Z" fill="#3B3561"/>
<path d="M248.282 22.4206V33.3741H224.421V28.3215H241.164V26.0718H224.421V15.1921H248.245V20.2816H231.539V22.4206H248.282Z" fill="#3B3561"/>
<path d="M274.682 22.4206V33.3741H250.82V28.3215H267.564V26.0718H250.82V15.1921H274.645V20.2816H257.938V22.4206H274.682Z" fill="#3B3561"/>
<path d="M300.75 20.0603V28.5428L298.647 33.3741H279.027L276.925 28.5428V20.0603L279.027 15.229H298.647L300.75 20.0603ZM293.632 27.547V21.0561H284.043V27.547H293.632Z" fill="#3B3561"/>
<path d="M321.005 15.229V21.0561L314.072 21.0929L310.199 22.7157V33.3741H303.081V15.229H310.199V16.8517L314.072 15.229H321.005Z" fill="#3B3561"/>
<path d="M354.094 7.55786L346.755 19.6915L354.094 33.3741H345.796L340.817 24.0065H335.137L330.195 33.3741H321.86L329.236 19.6915L321.86 7.55786H329.863L335.949 17.5524H340.005L346.091 7.55786H354.094Z" fill="#DCB4F5"/>
<path d="M0.413399 28.5733C1.88654 43.9506 25.1022 43.441 35.9419 40.6944C42.9048 38.9301 43.3376 35.4042 43.2118 27.8852C43.1307 23.0385 43.5025 10.208 40.5097 6.16978C35.9126 -0.0331578 31.7941 3.85719 26.1012 5.88202C18.799 8.47917 15.9536 3.84215 9.00611 3.9803C-1.17963 4.18284 -0.346894 20.6368 0.413399 28.5733Z" fill="url(#paint0_linear_28_2408)"/>
<path opacity="0.2" d="M33.8531 10.0092H32.277C32.0439 10.0092 31.8549 10.2084 31.8549 10.4539C31.8549 10.6995 32.0439 10.8987 32.277 10.8987H32.8339L25.4996 18.6259V18.0391C25.4996 17.7935 25.3105 17.5944 25.0774 17.5944C24.8443 17.5944 24.6553 17.7935 24.6553 18.0391V19.6996C24.6553 19.9452 24.8443 20.1444 25.0774 20.1444H26.6535C26.8866 20.1444 27.0756 19.9452 27.0756 19.6996C27.0756 19.454 26.8866 19.2548 26.6535 19.2548H26.0967L33.4309 11.5277V12.1143C33.4309 12.3599 33.6199 12.5591 33.853 12.5591C34.0861 12.5591 34.2752 12.3599 34.2752 12.1143V10.4539C34.2752 10.2084 34.0862 10.0092 33.8531 10.0092Z" fill="#3B3561"/>
<path opacity="0.2" d="M22.8735 24.8475H20.6502C20.4171 24.8475 20.228 24.6483 20.228 24.4027V22.0603C20.228 21.8147 20.4171 21.6155 20.6502 21.6155H22.8735C23.1066 21.6155 23.2956 21.8147 23.2956 22.0603V24.4027C23.2956 24.6483 23.1066 24.8475 22.8735 24.8475Z" fill="#3B3561"/>
<g opacity="0.2">
<path d="M38.4156 8.88258C38.6488 8.88258 38.8378 8.68341 38.8378 8.43782V6.09534C38.8378 5.84974 38.6488 5.65057 38.4156 5.65057H36.1923C35.9592 5.65057 35.7702 5.84974 35.7702 6.09534V6.82181H23.6417V6.09534C23.6417 5.84974 23.4527 5.65057 23.2195 5.65057H20.9962C20.7631 5.65057 20.5741 5.84974 20.5741 6.09534V6.82181H8.44561V6.09534C8.44561 5.84974 8.25658 5.65057 8.02346 5.65057H5.80008C5.56688 5.65057 5.37793 5.84974 5.37793 6.09534V8.43773C5.37793 8.68333 5.56688 8.88249 5.80008 8.88249H6.48954V21.6606H5.80008C5.56688 21.6606 5.37793 21.8598 5.37793 22.1054V24.4478C5.37793 24.6934 5.56688 24.8925 5.80008 24.8925H6.48954V37.6707H5.80008C5.56688 37.6707 5.37793 37.8698 5.37793 38.1154V40.4578C5.37793 40.7034 5.56688 40.9026 5.80008 40.9026H8.02338C8.25649 40.9026 8.44553 40.7034 8.44553 40.4578V39.7314H20.574V40.4578C20.574 40.7034 20.763 40.9026 20.9962 40.9026H23.2195C23.4526 40.9026 23.6416 40.7034 23.6416 40.4578V39.7314H35.7701V40.4578C35.7701 40.7034 35.9591 40.9026 36.1922 40.9026H38.4155C38.6487 40.9026 38.8377 40.7034 38.8377 40.4578V38.1154C38.8377 37.8698 38.6487 37.6707 38.4155 37.6707H37.7261V24.8926H38.4155C38.6487 24.8926 38.8377 24.6935 38.8377 24.4479V22.1055C38.8377 21.8599 38.6487 21.6607 38.4155 21.6607H37.7261V8.88258H38.4156ZM36.8818 21.6606H36.1922C35.9591 21.6606 35.7701 21.8598 35.7701 22.1054V24.4478C35.7701 24.6934 35.9591 24.8925 36.1922 24.8925H36.8818V37.6707H36.1922C35.9591 37.6707 35.7701 37.8698 35.7701 38.1154V38.8419H23.6417V38.1154C23.6417 37.8698 23.4527 37.6707 23.2195 37.6707H20.9962C20.7631 37.6707 20.5741 37.8698 20.5741 38.1154V38.8419H8.44561V38.1154C8.44561 37.8698 8.25658 37.6707 8.02346 37.6707H7.33392V24.8926H8.02346C8.25658 24.8926 8.44561 24.6935 8.44561 24.4479V22.1055C8.44561 21.8599 8.25658 21.6607 8.02346 21.6607H7.33392V8.88258H8.02346C8.25658 8.88258 8.44561 8.68341 8.44561 8.43782V7.71134H20.5741V8.43782C20.5741 8.68341 20.7631 8.88258 20.9962 8.88258H23.2195C23.4527 8.88258 23.6417 8.68341 23.6417 8.43782V7.71134H35.7702V8.43782C35.7702 8.68341 35.9592 8.88258 36.1923 8.88258H36.8819V21.6606H36.8818Z" fill="#3B3561"/>
</g>
<path d="M6.55811 21.4439H21.7623V37.4625H6.55811V21.4439Z" fill="white"/>
<path d="M16.1298 31.7119C16.574 29.8763 15.5216 28.0089 13.7792 27.5409C12.0369 27.073 10.2644 28.1818 9.82027 30.0175C9.37615 31.8531 10.4286 33.7206 12.1709 34.1885C13.9132 34.6564 15.6857 33.5476 16.1298 31.7119Z" fill="#DCB4F5"/>
<path d="M21.7623 37.4625V30.6163C20.627 30.2001 19.4061 29.9735 18.136 29.9735C13.4265 29.9735 9.40778 33.0851 7.82666 37.4625H21.7623Z" fill="#DCB4F5"/>
<path d="M22.1844 37.9072H7.21436L7.4321 37.3043C8.24913 35.0423 9.67845 33.1086 11.5655 31.7125C13.4965 30.284 15.7685 29.5288 18.136 29.5288C19.4262 29.5288 20.693 29.7534 21.901 30.1963L22.1844 30.3002V37.9072ZM8.4586 37.0177H21.34V30.9372C20.3073 30.5928 19.2309 30.4184 18.1359 30.4184C13.9691 30.4183 10.1559 33.045 8.4586 37.0177Z" fill="#3B3561"/>
<path d="M18.0406 37.4624H6.55811V32.8317C7.75077 32.0114 9.17443 31.5353 10.7039 31.5353C14.2169 31.5353 17.1738 34.0484 18.0406 37.4624Z" fill="#DCB4F5"/>
<path d="M18.5903 37.9072H6.13574V32.591L6.32715 32.4593C7.62906 31.5639 9.14247 31.0906 10.7037 31.0906C14.3283 31.0906 17.513 33.6636 18.4483 37.3475L18.5903 37.9072ZM6.98004 37.0177H17.4682C16.4663 34.024 13.7599 31.9801 10.7037 31.9801C9.38267 31.9801 8.10026 32.3587 6.98013 33.077V37.0177H6.98004Z" fill="#3B3561"/>
<path d="M7.67727 7.05833H5.45389C5.22078 7.05833 5.03174 6.85917 5.03174 6.61357V4.27109C5.03174 4.0254 5.22078 3.82632 5.45389 3.82632H7.67719C7.9103 3.82632 8.09934 4.0254 8.09934 4.27109V6.61348C8.09942 6.85917 7.91038 7.05833 7.67727 7.05833Z" fill="white"/>
<path d="M22.8735 7.05833H20.6502C20.4171 7.05833 20.228 6.85917 20.228 6.61357V4.27109C20.228 4.0254 20.4171 3.82632 20.6502 3.82632H22.8735C23.1066 3.82632 23.2956 4.0254 23.2956 4.27109V6.61348C23.2956 6.85917 23.1066 7.05833 22.8735 7.05833Z" fill="white"/>
<path d="M38.0693 7.05833H35.846C35.6129 7.05833 35.4238 6.85917 35.4238 6.61357V4.27109C35.4238 4.0254 35.6129 3.82632 35.846 3.82632H38.0693C38.3024 3.82632 38.4914 4.0254 38.4914 4.27109V6.61348C38.4914 6.85917 38.3024 7.05833 38.0693 7.05833Z" fill="white"/>
<path d="M7.67727 39.0785H5.45389C5.22078 39.0785 5.03174 38.8793 5.03174 38.6337V36.2913C5.03174 36.0457 5.22078 35.8466 5.45389 35.8466H7.67719C7.9103 35.8466 8.09934 36.0457 8.09934 36.2913V38.6337C8.09942 38.8793 7.91038 39.0785 7.67727 39.0785Z" fill="white"/>
<path d="M22.8735 39.0785H20.6502C20.4171 39.0785 20.228 38.8793 20.228 38.6337V36.2913C20.228 36.0457 20.4171 35.8466 20.6502 35.8466H22.8735C23.1066 35.8466 23.2956 36.0457 23.2956 36.2913V38.6337C23.2956 38.8793 23.1066 39.0785 22.8735 39.0785Z" fill="white"/>
<path d="M22.8735 23.0684H20.6502C20.4171 23.0684 20.228 22.8692 20.228 22.6236V20.2813C20.228 20.0357 20.4171 19.8365 20.6502 19.8365H22.8735C23.1066 19.8365 23.2956 20.0357 23.2956 20.2813V22.6236C23.2956 22.8692 23.1066 23.0684 22.8735 23.0684Z" fill="white"/>
<path d="M38.0693 39.0785H35.846C35.6129 39.0785 35.4238 38.8793 35.4238 38.6337V36.2913C35.4238 36.0457 35.6129 35.8466 35.846 35.8466H38.0693C38.3024 35.8466 38.4914 36.0457 38.4914 36.2913V38.6337C38.4914 38.8793 38.3024 39.0785 38.0693 39.0785Z" fill="white"/>
<path d="M35.4243 22.6236V20.2813C35.4243 20.0357 35.6134 19.8365 35.8465 19.8365H38.0698C38.3029 19.8365 38.4919 20.0357 38.4919 20.2813V22.6236C38.4919 22.8692 38.3029 23.0684 38.0698 23.0684H35.8465C35.6134 23.0684 35.4243 22.8692 35.4243 22.6236Z" fill="white"/>
<path d="M5.03174 22.6236V20.2813C5.03174 20.0357 5.22078 19.8365 5.45389 19.8365H7.67719C7.9103 19.8365 8.09934 20.0357 8.09934 20.2813V22.6236C8.09934 22.8692 7.9103 23.0684 7.67719 23.0684H5.45389C5.22078 23.0684 5.03174 22.8692 5.03174 22.6236Z" fill="white"/>
<path d="M38.0695 7.5031C38.5351 7.5031 38.9138 7.10405 38.9138 6.61357V4.27118C38.9138 3.78069 38.5351 3.38165 38.0695 3.38165H35.8462C35.3807 3.38165 35.0019 3.78069 35.0019 4.27118V4.99757H23.7178V4.27118C23.7178 3.78069 23.339 3.38165 22.8735 3.38165H20.6502C20.1846 3.38165 19.8059 3.78069 19.8059 4.27118V4.99757H8.52177V4.27118C8.52177 3.78069 8.14301 3.38165 7.67746 3.38165H5.45416C4.98862 3.38165 4.60986 3.78069 4.60986 4.27118V6.61357C4.60986 7.10405 4.98862 7.5031 5.45416 7.5031H6.14362V19.3917H5.45416C4.98862 19.3917 4.60986 19.7907 4.60986 20.2812V22.6236C4.60986 23.1141 4.98862 23.5131 5.45416 23.5131H6.14362V32.7197C6.14362 32.9653 6.33266 33.1645 6.56577 33.1645C6.79888 33.1645 6.98792 32.9653 6.98792 32.7197V23.5131H7.67746C8.14301 23.5131 8.52177 23.1141 8.52177 22.6236V20.2812C8.52177 19.7907 8.14301 19.3917 7.67746 19.3917H6.98792V7.5031H7.67746C8.14301 7.5031 8.52177 7.10405 8.52177 6.61357V5.88718H19.8059V6.61357C19.8059 7.10405 20.1847 7.5031 20.6502 7.5031H22.8735C23.3391 7.5031 23.7178 7.10405 23.7178 6.61357V5.88718H35.002V6.61357C35.002 7.10405 35.3808 7.5031 35.8463 7.5031H36.5358V19.3917H35.8463C35.3808 19.3917 35.002 19.7907 35.002 20.2812V22.6236C35.002 23.1141 35.3808 23.5131 35.8463 23.5131H36.5358V35.4018H35.8463C35.3808 35.4018 35.002 35.8008 35.002 36.2913V37.0177H23.7178V36.2913C23.7178 35.8008 23.339 35.4018 22.8735 35.4018H22.184V23.5131H22.8735C23.339 23.5131 23.7178 23.114 23.7178 22.6235V20.2811C23.7178 19.7907 23.339 19.3916 22.8735 19.3916H20.6502C20.1846 19.3916 19.8059 19.7907 19.8059 20.2811V20.9994H10.9442C10.7111 20.9994 10.5221 21.1986 10.5221 21.4442C10.5221 21.6898 10.7111 21.889 10.9442 21.889H19.8059V22.6235C19.8059 23.114 20.1846 23.5131 20.6502 23.5131H21.3397V35.4017H20.6502C20.1846 35.4017 19.8059 35.8007 19.8059 36.2912V37.0176H8.52177V36.2912C8.52177 35.8007 8.14301 35.4017 7.67746 35.4017H5.45416C4.98862 35.4017 4.60986 35.8007 4.60986 36.2912V38.6336C4.60986 39.1241 4.98862 39.5231 5.45416 39.5231H7.67746C8.14301 39.5231 8.52177 39.1241 8.52177 38.6336V37.9071H19.8059V38.6336C19.8059 39.1241 20.1847 39.5231 20.6502 39.5231H22.8735C23.3391 39.5231 23.7178 39.1241 23.7178 38.6336V37.9071H35.002V38.6336C35.002 39.1241 35.3808 39.5231 35.8463 39.5231H38.0696C38.5352 39.5231 38.9139 39.1241 38.9139 38.6336V36.2912C38.9139 35.8007 38.5352 35.4017 38.0696 35.4017H37.3801V23.5131H38.0696C38.5352 23.5131 38.9139 23.114 38.9139 22.6235V20.2811C38.9139 19.7907 38.5352 19.3916 38.0696 19.3916H37.3801V7.5031H38.0695ZM7.67746 22.6235L5.45416 22.6241V20.2811H7.67746V22.6235ZM5.45416 6.61357V4.27118H7.67746L7.67797 6.61357H5.45416ZM20.6502 6.61357V4.27118H22.8735L22.874 6.61357H20.6502ZM20.6502 20.2811H22.8735L22.874 22.6234L20.6502 22.6235V20.2811ZM5.45416 38.6336V36.2912H7.67746L7.67797 38.6335L5.45416 38.6336ZM20.6502 38.6336V36.2912H22.8735L22.874 38.6335L20.6502 38.6336ZM38.0701 38.6336H35.8463V36.2912H38.0696L38.0701 38.6336ZM38.0695 22.6235L35.8463 22.6241V20.2811H38.0696V22.6235H38.0695ZM35.8462 4.27118H38.0695L38.07 6.61357H35.8462V4.27118Z" fill="#3B3561"/>
<path d="M25.0774 15.8153C24.8443 15.8153 24.6553 16.0145 24.6553 16.2601V17.9205C24.6553 18.1661 24.8443 18.3653 25.0774 18.3653H26.6535C26.8866 18.3653 27.0756 18.1661 27.0756 17.9205C27.0756 17.6749 26.8866 17.4758 26.6535 17.4758H26.0967L33.4309 9.74864V10.3353C33.4309 10.5809 33.62 10.78 33.8531 10.78C34.0862 10.78 34.2752 10.5809 34.2752 10.3353V8.6748C34.2752 8.42921 34.0862 8.23004 33.8531 8.23004H32.277C32.0439 8.23004 31.8549 8.42921 31.8549 8.6748C31.8549 8.9204 32.0439 9.11957 32.277 9.11957H32.8339L25.4996 16.8467V16.26C25.4996 16.0145 25.3106 15.8153 25.0774 15.8153Z" fill="#3B3561"/>
<path opacity="0.2" d="M33.4297 33.8214H26.8396C26.6064 33.8214 26.4175 34.0205 26.4175 34.266C26.4175 34.5115 26.6064 34.7106 26.8396 34.7106H33.4297C33.6629 34.7106 33.8518 34.5115 33.8518 34.266C33.8518 34.0205 33.6629 33.8214 33.4297 33.8214Z" fill="#3B3561"/>
<path opacity="0.2" d="M31.3128 30.6548C31.546 30.6548 31.7349 30.4557 31.7349 30.2101C31.7349 29.8858 31.9854 29.6218 32.2933 29.6218C32.6011 29.6218 32.8516 29.8858 32.8516 30.2101C32.8516 30.4557 33.0406 30.6548 33.2738 30.6548C33.5069 30.6548 33.6959 30.4557 33.6959 30.2101C33.6959 29.8082 33.5424 29.4437 33.2944 29.1771C33.5423 28.9104 33.6959 28.5459 33.6959 28.1441C33.6959 27.3292 33.0666 26.6663 32.2933 26.6663C31.5199 26.6663 30.8906 27.3293 30.8906 28.1441C30.8906 28.5459 31.0441 28.9104 31.2921 29.1771C31.0442 29.4437 30.8906 29.8082 30.8906 30.2101C30.8906 30.4557 31.0797 30.6548 31.3128 30.6548ZM32.2933 27.5557C32.6012 27.5557 32.8517 27.8197 32.8517 28.144C32.8517 28.4684 32.6012 28.7322 32.2933 28.7322C31.9854 28.7322 31.735 28.4683 31.735 28.144C31.7349 27.8197 31.9854 27.5557 32.2933 27.5557Z" fill="#3B3561"/>
<path d="M33.4314 31.027H32.4588C32.2256 31.027 32.0366 30.8279 32.0366 30.5824C32.0366 30.3369 32.2256 30.1378 32.4588 30.1378H33.4314C33.6646 30.1378 33.8536 30.3369 33.8536 30.5824C33.8536 30.8279 33.6646 31.027 33.4314 31.027Z" fill="#3B3561"/>
<path d="M30.7688 31.027H26.8411C26.6079 31.027 26.4189 30.8279 26.4189 30.5824C26.4189 30.3369 26.6079 30.1378 26.8411 30.1378H30.7688C31.002 30.1378 31.1909 30.3369 31.1909 30.5824C31.1909 30.8279 31.002 31.027 30.7688 31.027Z" fill="#3B3561"/>
<path d="M33.4311 32.9246H26.8411C26.6079 32.9246 26.4189 32.7255 26.4189 32.48C26.4189 32.2345 26.6079 32.0355 26.8411 32.0355H33.4311C33.6643 32.0355 33.8533 32.2345 33.8533 32.48C33.8533 32.7256 33.6643 32.9246 33.4311 32.9246Z" fill="#3B3561"/>
<path d="M33.6974 26.358C33.6974 25.5432 33.0681 24.8803 32.2947 24.8803C31.5213 24.8803 30.8921 25.5432 30.8921 26.358C30.8921 26.7599 31.0456 27.1244 31.2936 27.3911C31.0457 27.6577 30.8921 28.0222 30.8921 28.4241C30.8921 28.6697 31.081 28.8688 31.3142 28.8688C31.5474 28.8688 31.7364 28.6697 31.7364 28.4241C31.7364 28.0997 31.9869 27.8358 32.2947 27.8358C32.6026 27.8358 32.8531 28.0997 32.8531 28.4241C32.8531 28.6697 33.042 28.8688 33.2752 28.8688C33.5084 28.8688 33.6974 28.6697 33.6974 28.4241C33.6974 28.0222 33.5439 27.6577 33.2959 27.3911C33.5439 27.1244 33.6974 26.7599 33.6974 26.358ZM32.2947 25.7697C32.6026 25.7697 32.8531 26.0336 32.8531 26.358C32.8531 26.6823 32.6026 26.9462 32.2947 26.9462C31.9869 26.9462 31.7364 26.6823 31.7364 26.358C31.7364 26.0336 31.9868 25.7697 32.2947 25.7697Z" fill="#3B3561"/>
<path d="M14.1566 16.356C14.0485 16.356 13.9405 16.3126 13.858 16.2258C13.6932 16.052 13.6932 15.7704 13.858 15.5968L14.7023 14.7073C14.8672 14.5336 15.1345 14.5336 15.2994 14.7073C15.4642 14.881 15.4642 15.1626 15.2994 15.3362L14.455 16.2258C14.3726 16.3125 14.2647 16.356 14.1566 16.356Z" fill="#3B3561"/>
<path d="M11.2669 12.6004C11.0338 12.6004 10.8447 12.4013 10.8447 12.1557C10.8447 11.8613 10.6175 11.6219 10.3382 11.6219C10.1051 11.6219 9.91602 11.4228 9.91602 11.1772C9.91602 10.9316 10.1051 10.7324 10.3382 10.7324C10.6175 10.7324 10.8447 10.493 10.8447 10.1986C10.8447 9.95301 11.0338 9.75385 11.2669 9.75385C11.5 9.75385 11.689 9.95301 11.689 10.1986C11.689 10.493 11.9163 10.7324 12.1956 10.7324C12.4287 10.7324 12.6178 10.9316 12.6178 11.1772C12.6178 11.4228 12.4287 11.6219 12.1956 11.6219C11.9163 11.6219 11.689 11.8613 11.689 12.1557C11.689 12.4013 11.5001 12.6004 11.2669 12.6004Z" fill="#3B3561"/>
<path d="M27.7503 25.9287C27.6423 25.9287 27.5343 25.8853 27.4518 25.7985C27.2869 25.6248 27.2869 25.3431 27.4518 25.1695L28.2961 24.28C28.461 24.1063 28.7282 24.1063 28.8931 24.28C29.058 24.4537 29.058 24.7353 28.8931 24.909L28.0488 25.7985C27.9664 25.8853 27.8584 25.9287 27.7503 25.9287Z" fill="#3B3561"/>
<path d="M32.66 3.79961C32.4269 3.79961 32.2378 3.60044 32.2378 3.35485C32.2378 3.0605 32.0106 2.82113 31.7312 2.82113C31.4981 2.82113 31.3091 2.62197 31.3091 2.37637C31.3091 2.13077 31.4981 1.9316 31.7312 1.9316C32.0106 1.9316 32.2378 1.69223 32.2378 1.39789C32.2378 1.15229 32.4269 0.953125 32.66 0.953125C32.8931 0.953125 33.0821 1.15229 33.0821 1.39789C33.0821 1.69223 33.3093 1.9316 33.5887 1.9316C33.8218 1.9316 34.0108 2.13077 34.0108 2.37637C34.0108 2.62197 33.8218 2.82113 33.5887 2.82113C33.3093 2.82113 33.0821 3.0605 33.0821 3.35485C33.0821 3.60044 32.8931 3.79961 32.66 3.79961Z" fill="#3B3561"/>
<path d="M12.9744 44.0498C12.7413 44.0498 12.5523 43.8507 12.5523 43.6051C12.5523 43.3107 12.3251 43.0713 12.0457 43.0713C11.8126 43.0713 11.6235 42.8722 11.6235 42.6266C11.6235 42.381 11.8126 42.1818 12.0457 42.1818C12.3251 42.1818 12.5523 41.9424 12.5523 41.6481C12.5523 41.4025 12.7413 41.2033 12.9744 41.2033C13.2075 41.2033 13.3966 41.4025 13.3966 41.6481C13.3966 41.9424 13.6238 42.1818 13.9031 42.1818C14.1363 42.1818 14.3253 42.381 14.3253 42.6266C14.3253 42.8722 14.1363 43.0713 13.9031 43.0713C13.6238 43.0713 13.3966 43.3107 13.3966 43.6051C13.3966 43.8507 13.2075 44.0498 12.9744 44.0498Z" fill="#3B3561"/>
<defs>
<linearGradient id="paint0_linear_28_2408" x1="2.95062e-05" y1="22.5015" x2="43.2283" y2="22.5015" gradientUnits="userSpaceOnUse">
<stop stop-color="#DCB4F5" stop-opacity="0"/>
<stop offset="1" stop-color="#DCB4F5"/>
</linearGradient>
</defs>
</svg>
