<svg width="20" height="20" viewBox="0 0 20 20" fill="none" xmlns="http://www.w3.org/2000/svg">
<path d="M15.8333 9.16667H4.16667C3.24619 9.16667 2.5 9.91286 2.5 10.8333V16.6667C2.5 17.5871 3.24619 18.3333 4.16667 18.3333H15.8333C16.7538 18.3333 17.5 17.5871 17.5 16.6667V10.8333C17.5 9.91286 16.7538 9.16667 15.8333 9.16667Z" stroke="#DCB4F5" stroke-width="1.5" stroke-linecap="round" stroke-linejoin="round"/>
<path d="M5.8335 9.16667V5.83334C5.8335 4.72827 6.27248 3.66846 7.05388 2.88706C7.83529 2.10566 8.89509 1.66667 10.0002 1.66667C11.1052 1.66667 12.165 2.10566 12.9464 2.88706C13.7278 3.66846 14.1668 4.72827 14.1668 5.83334V9.16667" stroke="#DCB4F5" stroke-width="1.5" stroke-linecap="round" stroke-linejoin="round"/>
</svg>
