<svg width="41" height="29" viewBox="0 0 41 29" fill="none" xmlns="http://www.w3.org/2000/svg">
<path d="M32.036 29H25.4093H23.6248H23.2395V20.3594H26.1465C26.8837 20.3594 27.3194 19.5451 26.8837 18.9587L21.2289 11.3524C20.8686 10.8638 20.123 10.8638 19.7628 11.3524L14.1079 18.9587C13.6723 19.5451 14.0995 20.3594 14.8451 20.3594H17.7521V29H17.3668H15.5823H7.90008C3.50184 28.7638 0 24.7652 0 20.4327C0 17.444 1.66714 14.838 4.13854 13.4291C3.91234 12.8346 3.79506 12.1994 3.79506 11.5316C3.79506 8.47768 6.33347 6.01011 9.47507 6.01011C10.1537 6.01011 10.8071 6.12412 11.4187 6.344C13.2366 2.59787 17.1573 0 21.7148 0C27.6126 0.00814378 32.4716 4.39764 33.0245 9.99242C37.5568 10.7498 41 14.8298 41 19.4473C41 24.3825 37.0458 28.658 32.036 29Z" fill="url(#paint0_linear_28_2316)"/>
<defs>
<linearGradient id="paint0_linear_28_2316" x1="39.77" y1="-5.45871e-06" x2="-0.0770721" y2="3.85859" gradientUnits="userSpaceOnUse">
<stop stop-color="#3D318A"/>
<stop offset="1" stop-color="#DCB4F5"/>
</linearGradient>
</defs>
</svg>
